<?xml version="1.0" encoding="utf-8"?>
<!-- Generator: Adobe Illustrator 21.0.2, SVG Export Plug-In . SVG Version: 6.00 Build 0)  -->
<!DOCTYPE svg PUBLIC "-//W3C//DTD SVG 1.1//EN" "http://www.w3.org/Graphics/SVG/1.1/DTD/svg11.dtd">
<svg version="1.1" id="Layer_1" xmlns="http://www.w3.org/2000/svg" xmlns:xlink="http://www.w3.org/1999/xlink" x="0px" y="0px"
	 viewBox="0 0 438 2252.4" style="enable-background:new 0 0 438 2252.4;" xml:space="preserve">
<style type="text/css">
	.st0{fill:#F8F9F9;}
</style>
<path class="st0" d="M77.5,340.4V151.1L0,120.5V3l438,188.1v117.5L0,492.2V370.4L77.5,340.4z M165,306.7l156.2-60L165,185.4V306.7z"
	/>
<path class="st0" d="M327.4,890c-45.6,0-82.5-29.4-95-75.6c-11.2,55.6-54.4,90-110.6,90C46.9,904.4,0,838.8,0,735.7V519.5h438v208.1
	C438,826.9,394.9,890,327.4,890z M307.4,772.5c26.2,0,41.9-19.4,41.2-51.2v-87.5h-85v87.5C263.7,753.1,279.9,772.5,307.4,772.5z
	 M136.2,786.3c27.5,0,45-25,44.4-65v-87.5H88.7v87.5C88.7,761.3,106.2,786.3,136.2,786.3z"/>
<path class="st0" d="M220.2,1399.6C94.5,1399.6,0,1300.2,0,1167.1C0,1034,94.5,934.6,220.2,934.6c125.1,0,217.8,99.4,217.8,232.5
	C438,1300.2,344.8,1399.6,220.2,1399.6z M219.6,1049.9c-69.9,0-123.9,54.6-123.9,118.4c0,64.4,54,115.9,123.9,115.9
	c69.9,0,122.7-51.5,122.7-115.9C342.3,1103.9,289.5,1049.9,219.6,1049.9z"/>
<path class="st0" d="M95.7,1648c0,49.7,33.7,84,89.6,84h252.7v112.3H185.3C71.8,1844.3,0,1768.2,0,1647.4
	C0,1525.9,71.8,1448,185.3,1448h252.7v112.3H185.3C130.1,1560.3,95.7,1597.1,95.7,1648z"/>
<path class="st0" d="M438,2251.6h-92.6v-128.8H0v-112.3h345.4V1883H438V2251.6z"/>
</svg>
