<svg xmlns="http://www.w3.org/2000/svg" viewBox="0 0 1954.38 348.68"><defs><style>.cls-1{stroke:#000;stroke-miterlimit:10;stroke-width:0.75px;}</style></defs><title>Recurso 2</title><g id="Capa_2" data-name="Capa 2"><g id="Capa_1-2" data-name="Capa 1"><path class="cls-1" d="M153.64,224H55.19L39,259.56H.58L85,71.26h38.74l84.47,188.3H169.51ZM104.41,110.8,69.44,191h69.94Z"/><path class="cls-1" d="M348.12,71h35.51V259.56H361.57v.27l-99-127.24v127H227.07V71.26h28.78L348.12,188Z"/><path class="cls-1" d="M556.06,117.26c-12.64-12.1-31.47-18.83-47.88-18.83-40.35,0-64.83,30.67-64.83,69.4,0,30.93,18,62.95,64.83,62.95,14.79,0,27.71-3.23,42.5-15.06V182.35H502.53V150.61h80.7V230c-18.56,21.25-42,33.89-75.05,33.89-70.75,0-99.53-46.54-99.53-96,0-53,33.09-102,99.53-102a99.45,99.45,0,0,1,69.94,28.78Z"/><path class="cls-1" d="M752.69,259.56h-141V71.26h141v34.43H647V149h102v33.09H647v42.5H752.69Z"/><path class="cls-1" d="M815.64,71.26V226.74h96.84v32.82H780.13V71.26Z"/><path class="cls-1" d="M1213.79,19.82q7.1,9.73,7.11,20a47.24,47.24,0,0,1-4.49,20,73.76,73.76,0,0,1-12,18.14,93.26,93.26,0,0,1-15.33,14,152.63,152.63,0,0,1-34.22,18.33,155.07,155.07,0,0,1-37.59,9.35,111.24,111.24,0,0,1-29.55-.94,93.81,93.81,0,0,1-27.68-9.16q-1.87,2.62-3.55,5.24t-3.55,5.61q-3.74,6.36-8.6,15.52a200.49,200.49,0,0,0-8.79,18.89,114.41,114.41,0,0,0-6,19.63,38.54,38.54,0,0,0,.19,18.14,20.32,20.32,0,0,0,11.41,13.84,28.49,28.49,0,0,0,18.14,2.24,38.35,38.35,0,0,0,18.33-9,79.43,79.43,0,0,0,13.84-15.33,128,128,0,0,1,15.33-23.19,80.88,80.88,0,0,1,20.94-18.7,44.47,44.47,0,0,1,8.79-4.3,49.79,49.79,0,0,1,12-2.8,51.35,51.35,0,0,1,13.09.19,29.18,29.18,0,0,1,12.16,4.67,150.46,150.46,0,0,0-20.2,30.48q-8.61,17-17.58,33.85-13.1,22.82-25.81,45.44a396.45,396.45,0,0,1-28.42,43.57q-6.73,9-14.59,18a137.84,137.84,0,0,1-16.83,16.27,117.16,117.16,0,0,1-19.26,12.72,64.32,64.32,0,0,1-21.88,6.92,82.53,82.53,0,0,1-20.76.37,85.18,85.18,0,0,1-20.38-4.68,69.51,69.51,0,0,1-18-9.72,64,64,0,0,1-14.21-14.77,55.67,55.67,0,0,1-9-21.32,66,66,0,0,1,7.29-45.07,54.43,54.43,0,0,1,15.52-17.39,51.16,51.16,0,0,1,19.63-8.79,34.91,34.91,0,0,1,21.13,1.68q3.37,1.5,3.74,2.81a2.75,2.75,0,0,1-.75,2.62,14.13,14.13,0,0,1-3.18,2.62,21,21,0,0,0-3.55,2.81A61.63,61.63,0,0,0,972,262a75,75,0,0,0-4.49,26.18,55.49,55.49,0,0,0,5,23.19Q977.41,321.64,986,325q10.47,4.49,20,1.87a49.15,49.15,0,0,0,17.58-9,73.89,73.89,0,0,0,14.4-15.33,133.6,133.6,0,0,0,10.47-17.2,293.14,293.14,0,0,0,13.09-30.29q5.61-15.33,12-31-4.12,3-8.6,6a47.48,47.48,0,0,1-9.35,4.86,50.4,50.4,0,0,1-21.69,4.67,53.16,53.16,0,0,1-20.38-4.3,50.25,50.25,0,0,1-17-12.15,62.41,62.41,0,0,1-12-18.89,76.6,76.6,0,0,1-5.61-33.85,104.53,104.53,0,0,1,7.85-33.29,152.29,152.29,0,0,1,17.58-31.23,252.52,252.52,0,0,1,23.19-27.68,68,68,0,0,1-8.79-28.24,52.21,52.21,0,0,1,6.17-29.36q1.49-2.61,3.93-6.17a55.39,55.39,0,0,1,5.42-6.73,33.7,33.7,0,0,1,6.17-5.24A11.92,11.92,0,0,1,1047,.38q2.61,12,5.61,24.12a74.34,74.34,0,0,0,9.72,22.63A279.52,279.52,0,0,1,1096,25.62a184.69,184.69,0,0,1,37-15.15q9.34-2.61,20.57-5A98.15,98.15,0,0,1,1176,3.18a65.59,65.59,0,0,1,21.13,3.74A34.82,34.82,0,0,1,1213.79,19.82ZM1143.1,73.31q6.73-1.12,15.71-3.55A84.8,84.8,0,0,0,1176,63a56,56,0,0,0,14.4-10.66,26.39,26.39,0,0,0,7.29-15.71q.75-9-3.93-12.9A22.45,22.45,0,0,0,1182,18.89a45.12,45.12,0,0,0-15.15.75,82.86,82.86,0,0,0-13.65,3.93A96.94,96.94,0,0,0,1133,34q-9.35,6.36-18,13.46-6.36,5.24-12.53,11t-11.78,11.78A79.13,79.13,0,0,0,1116.92,75,159.5,159.5,0,0,0,1143.1,73.31Z"/><path class="cls-1" d="M1289,93.5q4.86-1.87,12-.75A28.55,28.55,0,0,1,1318.5,104a54.4,54.4,0,0,1,9.35,19.07,81.45,81.45,0,0,1,.37,33.85,148.65,148.65,0,0,1-10.47,33.1q12,4.86,23.38-2.62t20-23.56q10.84-4.86,12,6-12,22.82-29.73,35.34t-43.57,14.4q-6,7.85-12.9,15.52a108.18,108.18,0,0,1-14.77,13.65,79.86,79.86,0,0,1-17,9.91,59.92,59.92,0,0,1-19.26,4.68,49.06,49.06,0,0,1-22.44-3.55,51,51,0,0,1-17.58-12.34,63.76,63.76,0,0,1-12-18.51,73.65,73.65,0,0,1-5.61-22.07,104.22,104.22,0,0,1,1.12-26.37,129.64,129.64,0,0,1,19.82-49.93,120.41,120.41,0,0,1,16.83-20.2,97.16,97.16,0,0,1,20.76-14.59,63.5,63.5,0,0,1,24.12-7.11,56.24,56.24,0,0,1,13.65.19,41.27,41.27,0,0,1,13.28,3.93Zm-18,83a56.13,56.13,0,0,1,13.65-9q7.29-3.37,13.28-.37a14.23,14.23,0,0,1,4.49,4.11,89.83,89.83,0,0,0,3.55-20.94,75.53,75.53,0,0,0-2.06-21.69,26.09,26.09,0,0,0-5.42-10.29,54.85,54.85,0,0,0-8.79-7.67,42.7,42.7,0,0,0-12.72,1.12,50.83,50.83,0,0,0-11.59,4.49,60,60,0,0,0-17.58,14.4,112.07,112.07,0,0,0-14.4,21.32,144.89,144.89,0,0,0-10.1,24.5,98.33,98.33,0,0,0-4.49,24.12,54.09,54.09,0,0,0,2.43,20.2,20.51,20.51,0,0,0,10.85,12.53q9.34,4.86,21.69.56t23.56-17.39a36.5,36.5,0,0,1-9.54-5,20.5,20.5,0,0,1-6.54-8q-3-6.36.19-13.65A40.24,40.24,0,0,1,1271,176.53Z"/><path class="cls-1" d="M1647.25,163.81a17.2,17.2,0,0,1,7.85-.37q3.37.76,4.11,6.36a286.92,286.92,0,0,1-23.56,37.4A208.4,208.4,0,0,1,1606.48,239a102.61,102.61,0,0,1-16.27,11.78,66.58,66.58,0,0,1-18.7,7.67,38.75,38.75,0,0,1-18.89-.19q-9.35-2.43-16.46-12.16a33.69,33.69,0,0,1-7.48-17.76,74.88,74.88,0,0,1,.56-20.38,113.61,113.61,0,0,1,5.24-20.38q3.55-9.91,7.29-18.51a222.83,222.83,0,0,1,14.77-29.36q8.42-14,15.89-29-10.85,8.61-23,20.2T1528.32,153q-11.22,13.1-21.32,26.37t-19.82,27.49q-8.61,12.34-14.59,22.07t-10.47,16.46a80,80,0,0,1-7.67,10.1q-3.18,3.36-6.17,3.37a38.28,38.28,0,0,1-8.6-2.06,54.84,54.84,0,0,1-9.16-4.11,22.65,22.65,0,0,1-7.11-6.17,11.61,11.61,0,0,1-2.06-9q.37-1.49,1.68-5t3-7.67q1.68-4.11,3.37-8t2.43-6.17q10.1-22.44,21.51-45.63t24.87-49.37q-15.34,14.22-29.73,30.11T1421,178q-8.61,10.48-16.64,20.95t-15.9,21.32q-1.5,1.88-4.86,6.73t-7.29,10.1q-3.93,5.24-7.67,10.1a45.27,45.27,0,0,1-6,6.73q-3.37,2.62-8.79,1.31a30.8,30.8,0,0,1-10.66-5,38.44,38.44,0,0,1-8.79-8.6q-3.55-4.85-2.8-9.35,1.5-9,7.11-22.63t13.09-28.8q7.49-15.15,16.27-30.48t17-28.42l22.81-37.4a18.3,18.3,0,0,1,10.47-8.41q7.1-2.43,15.71,3.93,8.6,6.73,10.85,10.85t-1.5,10.85q-4.12,7.49-9.91,16.64l-11.59,18.33q-5.8,9.17-11,17.76t-8.6,14.59q5.23-6.36,13.84-16.27t18-20.2q9.34-10.28,18.33-19.63a189,189,0,0,1,15.33-14.59,66.69,66.69,0,0,1,5.8-5,92.22,92.22,0,0,1,7.67-5.42A53.38,53.38,0,0,1,1490,83.4a22.16,22.16,0,0,1,9.91-1.5,31.21,31.21,0,0,1,10.29,2.8,47,47,0,0,1,9.91,6,40.52,40.52,0,0,1,7.29,7.29q2.81,3.74,2.43,6.36a28.49,28.49,0,0,1-3.74,9.16,95.79,95.79,0,0,0-4.86,9.16l-9,18.33a242.29,242.29,0,0,1,51.24-47.5q14.59-10.1,23.94-11.59a31.11,31.11,0,0,1,18.7,3A52.79,52.79,0,0,1,1621.44,95q5.61,5.61,4.86,8.23a29.92,29.92,0,0,1-2.62,7.48q-1.87,3.74-3.74,7.11l-16.08,30.29Q1596,163.44,1588,178.59a215.51,215.51,0,0,0-13.65,31.6q-4.12,11.6,2.43,15.52T1599,221a88.12,88.12,0,0,0,26.74-23.37A235.93,235.93,0,0,0,1647.25,163.81Z"/><path class="cls-1" d="M1701.85,182.89a62.13,62.13,0,0,1-8.41.19,61.19,61.19,0,0,1-8.42-.93q-6.73,20.95-3.93,34.41t12.72,18.7q9.9,5.24,25.62,1.87t35.16-15.71A134.25,134.25,0,0,0,1782.82,195,212.28,212.28,0,0,0,1804,163.81a19.56,19.56,0,0,1,7.67-1.31q3.55.19,4.3,7.29a201.45,201.45,0,0,1-22.63,33.66,256.15,256.15,0,0,1-30.85,31.79q-26.93,22.44-53.11,29.92t-44.88-4.49a66.74,66.74,0,0,1-28.8-57.6,105.45,105.45,0,0,1,5.8-31.6,152,152,0,0,1,35.34-57.22,109,109,0,0,1,25.81-19.64,125.4,125.4,0,0,1,32-11.59q18.14-4.11,33.85,0a29.6,29.6,0,0,1,13.09,6.54,28.44,28.44,0,0,1,7.67,10.85,31.42,31.42,0,0,1,2.06,13.28,48.47,48.47,0,0,1-3,14.21,67.07,67.07,0,0,1-20.38,28.42,111.33,111.33,0,0,1-30.11,18A110.84,110.84,0,0,1,1701.85,182.89ZM1734,111.08a170.42,170.42,0,0,0-25.24,27.3,184.47,184.47,0,0,0-19.26,32.16q5.61-1.49,12.72-4.11a154.06,154.06,0,0,0,21.69-9.91,91.86,91.86,0,0,0,19.07-14,94.78,94.78,0,0,0,13.84-15.71,29.82,29.82,0,0,0,5.61-19.82q0-6-3.74-6.73a15.59,15.59,0,0,0-8.6,1.12,48,48,0,0,0-9.35,4.86Q1736.26,109.22,1734,111.08Z"/><path class="cls-1" d="M1930.36,124.54a216.44,216.44,0,0,0-22.81,14.77q-10.85,8-20.94,16.64-8.61,7.11-18.14,15.9t-19.63,17.76q-10.1,9-20.2,17.2a167.56,167.56,0,0,1-19.45,13.84q11.59-1.87,24.87-4.49t26.55-3.93a144.11,144.11,0,0,1,25.25-.37,52.1,52.1,0,0,1,20.94,5.8q13.83,7.49,17,18.51a50.73,50.73,0,0,1,.93,23.37,238.7,238.7,0,0,0-27.49-2.62q-16.27-.74-35-.56T1824,257.69q-19.63,1.12-37.59,3l-9.91,1.5a44.68,44.68,0,0,1-9.91.38q-6-.38-9-3.55t-4.86-11.41q-1.87-8.22-.19-12.15t4.67-5a134.72,134.72,0,0,0,23-12.9q11-7.66,21.5-15.89,9-7.1,18.89-15.52t20.2-17.39q10.28-9,20-17.76t18.33-16.27q5.23-4.49,9.35-7.85t9.72-7.11a120,120,0,0,0-14.4.94q-7.67.94-15.15,1.5a111.56,111.56,0,0,1-14.4.19,27,27,0,0,1-12.15-3.37q-11.6-6.36-13.09-15.33t2.24-20.94q2.61,1.12,10.66,1.31t18.89.19q10.84,0,23.19-.37t23.75-.56q11.4-.18,20.38-.56t13.09-.37A11.88,11.88,0,0,1,1951.68,89q3.36,6.36,1.87,25.06-6,2.62-11.78,5T1930.36,124.54Z"/></g></g></svg>