<svg id="Capa_1" data-name="Capa 1" xmlns="http://www.w3.org/2000/svg" viewBox="0 0 1954.39 348.67"><defs><style>.cls-1{isolation:isolate;}.cls-2,.cls-3{fill:#fff;}.cls-3{stroke:#000;stroke-miterlimit:10;stroke-width:0.75px;}</style></defs><title>logoRecurso 2</title><g id="Capa_2" data-name="Capa 2"><g id="Capa_1-2" data-name="Capa 1-2"><g class="cls-1"><path class="cls-2" d="M279.76,286.51H181.31L165.17,322H126.7l84.46-188.3H249.9L334.37,322H295.63ZM230.54,173.26l-35,80.16h69.94Z" transform="translate(-126.12 -62.46)"/></g><g class="cls-1"><path class="cls-3" d="M279.76,286.51H181.31L165.17,322H126.7l84.46-188.3H249.9L334.37,322H295.63ZM230.54,173.26l-35,80.16h69.94Z" transform="translate(-126.12 -62.46)"/></g><g class="cls-1"><path class="cls-2" d="M474.24,133.45h35.51V322H487.69v.27l-99-127.24V322H353.19V133.72H382l92.27,116.75v-117Z" transform="translate(-126.12 -62.46)"/><path class="cls-2" d="M682.18,179.72c-12.64-12.1-31.47-18.83-47.88-18.83-40.35,0-64.83,30.66-64.83,69.4,0,30.93,18,62.95,64.83,62.95,14.79,0,27.71-3.23,42.5-15.06V244.82H628.65V213.08h80.7v79.35c-18.56,21.25-42,33.89-75,33.89-70.75,0-99.53-46.54-99.53-96,0-53,33.09-101.95,99.53-101.95a99.45,99.45,0,0,1,69.94,28.78Z" transform="translate(-126.12 -62.46)"/><path class="cls-2" d="M878.81,322h-141V133.72h141v34.43H773.09v43.31H875v33.09h-102v42.5H878.81Z" transform="translate(-126.12 -62.46)"/><path class="cls-2" d="M941.76,133.72V289.2h96.84V322H906.25V133.72Z" transform="translate(-126.12 -62.46)"/></g><g class="cls-1"><path class="cls-3" d="M474.24,133.45h35.51V322H487.69v.27l-99-127.24V322H353.19V133.72H382l92.27,116.75v-117Z" transform="translate(-126.12 -62.46)"/><path class="cls-3" d="M682.18,179.72c-12.64-12.1-31.47-18.83-47.88-18.83-40.35,0-64.83,30.66-64.83,69.4,0,30.93,18,62.95,64.83,62.95,14.79,0,27.71-3.23,42.5-15.06V244.82H628.65V213.08h80.7v79.35c-18.56,21.25-42,33.89-75,33.89-70.75,0-99.53-46.54-99.53-96,0-53,33.09-101.95,99.53-101.95a99.45,99.45,0,0,1,69.94,28.78Z" transform="translate(-126.12 -62.46)"/><path class="cls-3" d="M878.81,322h-141V133.72h141v34.43H773.09v43.31H875v33.09h-102v42.5H878.81Z" transform="translate(-126.12 -62.46)"/><path class="cls-3" d="M941.76,133.72V289.2h96.84V322H906.25V133.72Z" transform="translate(-126.12 -62.46)"/></g><g class="cls-1"><path class="cls-2" d="M1339.92,82.29q7.1,9.73,7.1,20a47.26,47.26,0,0,1-4.49,20,73.76,73.76,0,0,1-12,18.14,93.34,93.34,0,0,1-15.33,14A152.67,152.67,0,0,1,1281,172.79a155.05,155.05,0,0,1-37.59,9.35,111.26,111.26,0,0,1-29.55-.93A93.87,93.87,0,0,1,1186.2,172q-1.88,2.62-3.55,5.24t-3.55,5.61q-3.74,6.36-8.6,15.52a199.89,199.89,0,0,0-8.79,18.89,114.31,114.31,0,0,0-6,19.63,38.53,38.53,0,0,0,.19,18.14,20.31,20.31,0,0,0,11.41,13.84,28.51,28.51,0,0,0,18.14,2.24,38.32,38.32,0,0,0,18.32-9,79.32,79.32,0,0,0,13.84-15.33A127.86,127.86,0,0,1,1233,223.66a80.84,80.84,0,0,1,20.94-18.7,44.53,44.53,0,0,1,8.79-4.3,49.84,49.84,0,0,1,12-2.8,51.37,51.37,0,0,1,13.09.19,29.18,29.18,0,0,1,12.16,4.68,150.35,150.35,0,0,0-20.2,30.48q-8.61,17-17.58,33.85-13.09,22.82-25.81,45.44a396.34,396.34,0,0,1-28.42,43.57q-6.73,9-14.59,18a138.15,138.15,0,0,1-16.83,16.27A117.21,117.21,0,0,1,1157.21,403a64.33,64.33,0,0,1-21.88,6.92,82.48,82.48,0,0,1-20.76.37,85.18,85.18,0,0,1-20.38-4.67,69.54,69.54,0,0,1-18-9.73A63.9,63.9,0,0,1,1062,381.11a55.68,55.68,0,0,1-9-21.32,66,66,0,0,1,7.29-45.07,54.46,54.46,0,0,1,15.52-17.39,51.19,51.19,0,0,1,19.64-8.79,34.9,34.9,0,0,1,21.13,1.68q3.36,1.5,3.74,2.8a2.75,2.75,0,0,1-.75,2.62,14.17,14.17,0,0,1-3.18,2.62,20.9,20.9,0,0,0-3.55,2.8,61.63,61.63,0,0,0-14.77,23.38,74.94,74.94,0,0,0-4.49,26.18,55.49,55.49,0,0,0,5,23.19q4.86,10.28,13.46,13.65,10.47,4.49,20,1.87a49.11,49.11,0,0,0,17.58-9,73.85,73.85,0,0,0,14.4-15.33,133.45,133.45,0,0,0,10.47-17.2,292.68,292.68,0,0,0,13.09-30.3q5.61-15.33,12-31-4.12,3-8.6,6a47.46,47.46,0,0,1-9.35,4.86A50.42,50.42,0,0,1,1160,302a53.17,53.17,0,0,1-20.38-4.3,50.26,50.26,0,0,1-17-12.16,62.35,62.35,0,0,1-12-18.89,76.6,76.6,0,0,1-5.61-33.85,104.56,104.56,0,0,1,7.85-33.29,152.23,152.23,0,0,1,17.58-31.23,252.34,252.34,0,0,1,23.19-27.68,68,68,0,0,1-8.79-28.24A52.2,52.2,0,0,1,1151,83q1.49-2.61,3.93-6.17a55.49,55.49,0,0,1,5.42-6.73,33.66,33.66,0,0,1,6.17-5.24,11.93,11.93,0,0,1,6.55-2.06q2.61,12,5.61,24.12a74.36,74.36,0,0,0,9.72,22.63,279.63,279.63,0,0,1,33.66-21.51,184.78,184.78,0,0,1,37-15.15q9.34-2.61,20.57-5a98.12,98.12,0,0,1,22.44-2.24,65.6,65.6,0,0,1,21.13,3.74A34.8,34.8,0,0,1,1339.92,82.29Zm-70.69,53.48q6.73-1.12,15.71-3.55a84.86,84.86,0,0,0,17.2-6.73,56,56,0,0,0,14.4-10.66,26.4,26.4,0,0,0,7.29-15.71q.74-9-3.93-12.9a22.45,22.45,0,0,0-11.78-4.86,45.14,45.14,0,0,0-15.15.75A82.84,82.84,0,0,0,1279.33,86a97,97,0,0,0-20.2,10.47q-9.35,6.36-18,13.46-6.36,5.24-12.53,11t-11.78,11.78a79.1,79.1,0,0,0,26.18,4.68A159.49,159.49,0,0,0,1269.23,135.77Z" transform="translate(-126.12 -62.46)"/><path class="cls-2" d="M1415.09,156q4.85-1.87,12-.75a28.55,28.55,0,0,1,17.58,11.22,54.42,54.42,0,0,1,9.35,19.07,81.46,81.46,0,0,1,.37,33.85,148.54,148.54,0,0,1-10.47,33.1q12,4.87,23.38-2.62t20-23.56q10.84-4.86,12,6-12,22.82-29.73,35.34T1425.94,282q-6,7.85-12.9,15.52a108.16,108.16,0,0,1-14.77,13.65,79.87,79.87,0,0,1-17,9.91,59.9,59.9,0,0,1-19.26,4.67,49,49,0,0,1-22.44-3.55A51,51,0,0,1,1322,309.86a63.74,63.74,0,0,1-12-18.51,73.63,73.63,0,0,1-5.61-22.07,104.19,104.19,0,0,1,1.12-26.37A129.68,129.68,0,0,1,1325.33,193a120.45,120.45,0,0,1,16.83-20.19,97.15,97.15,0,0,1,20.76-14.59,63.52,63.52,0,0,1,24.12-7.1,56.19,56.19,0,0,1,13.65.19,41.27,41.27,0,0,1,13.28,3.93Zm-18,83a56.19,56.19,0,0,1,13.65-9q7.29-3.37,13.28-.37a14.2,14.2,0,0,1,4.49,4.11,89.78,89.78,0,0,0,3.55-20.94,75.47,75.47,0,0,0-2.06-21.69,26.1,26.1,0,0,0-5.42-10.28,54.86,54.86,0,0,0-8.79-7.67,42.71,42.71,0,0,0-12.72,1.12,50.91,50.91,0,0,0-11.59,4.49,60,60,0,0,0-17.58,14.4,112,112,0,0,0-14.4,21.32,144.86,144.86,0,0,0-10.1,24.5,98.28,98.28,0,0,0-4.49,24.12,54.09,54.09,0,0,0,2.43,20.2,20.52,20.52,0,0,0,10.85,12.53q9.34,4.87,21.69.56T1403.49,279a36.46,36.46,0,0,1-9.54-5,20.49,20.49,0,0,1-6.55-8q-3-6.35.19-13.65A40.23,40.23,0,0,1,1397.14,239Z" transform="translate(-126.12 -62.46)"/><path class="cls-2" d="M1773.38,226.28a17.2,17.2,0,0,1,7.85-.37q3.37.75,4.11,6.36a286.74,286.74,0,0,1-23.56,37.4,208.36,208.36,0,0,1-29.17,31.79,102.48,102.48,0,0,1-16.27,11.78,66.61,66.61,0,0,1-18.7,7.67,38.73,38.73,0,0,1-18.89-.19q-9.35-2.43-16.45-12.15a33.69,33.69,0,0,1-7.48-17.77,74.88,74.88,0,0,1,.56-20.38,113.5,113.5,0,0,1,5.24-20.38q3.55-9.91,7.29-18.51a222.71,222.71,0,0,1,14.77-29.36q8.41-14,15.9-29-10.85,8.61-23,20.2t-21.13,22.07q-11.22,13.09-21.32,26.37t-19.82,27.49q-8.61,12.34-14.59,22.07t-10.47,16.46a80.07,80.07,0,0,1-7.67,10.1q-3.18,3.37-6.17,3.36a38.1,38.1,0,0,1-8.6-2.06,54.88,54.88,0,0,1-9.16-4.11,22.66,22.66,0,0,1-7.1-6.17,11.6,11.6,0,0,1-2.06-9q.37-1.49,1.68-5t3-7.67q1.68-4.11,3.37-8T1558,273q10.1-22.44,21.51-45.63T1604.33,178q-15.34,14.22-29.73,30.11t-27.49,32.35q-8.61,10.47-16.64,20.94t-15.9,21.32q-1.5,1.88-4.86,6.73t-7.29,10.1q-3.93,5.24-7.67,10.1a45.08,45.08,0,0,1-6,6.73q-3.37,2.62-8.79,1.31a30.77,30.77,0,0,1-10.66-5,38.44,38.44,0,0,1-8.79-8.6q-3.55-4.86-2.81-9.35,1.5-9,7.1-22.63t13.09-28.8q7.48-15.15,16.27-30.48t17-28.42L1534,147a18.31,18.31,0,0,1,10.47-8.41q7.1-2.43,15.71,3.93,8.6,6.73,10.85,10.85t-1.5,10.85q-4.12,7.49-9.91,16.64L1548,199.16q-5.8,9.17-11,17.77t-8.6,14.59q5.23-6.36,13.84-16.27t18-20.2q9.34-10.28,18.32-19.64a189.1,189.1,0,0,1,15.33-14.59,66.72,66.72,0,0,1,5.8-5,91.94,91.94,0,0,1,7.67-5.42,53.36,53.36,0,0,1,8.79-4.49,22.18,22.18,0,0,1,9.91-1.5,31.23,31.23,0,0,1,10.29,2.81,47,47,0,0,1,9.91,6,40.63,40.63,0,0,1,7.29,7.29q2.8,3.74,2.43,6.36a28.49,28.49,0,0,1-3.74,9.16,95.81,95.81,0,0,0-4.86,9.16l-9,18.33A242.24,242.24,0,0,1,1689.6,156q14.59-10.1,23.94-11.6a31.11,31.11,0,0,1,18.7,3,52.79,52.79,0,0,1,15.33,10.1q5.61,5.61,4.86,8.23a29.94,29.94,0,0,1-2.62,7.48q-1.88,3.74-3.74,7.1L1730,210.56q-7.85,15.34-15.9,30.48a215.27,215.27,0,0,0-13.65,31.6q-4.12,11.6,2.43,15.52t22.25-4.68a88.09,88.09,0,0,0,26.74-23.37A235.52,235.52,0,0,0,1773.38,226.28Z" transform="translate(-126.12 -62.46)"/><path class="cls-2" d="M1828,245.35a61.81,61.81,0,0,1-8.42.19,60.91,60.91,0,0,1-8.42-.94q-6.73,21-3.93,34.41t12.72,18.7q9.91,5.24,25.62,1.87t35.16-15.71a134.31,134.31,0,0,0,28.24-26.36,212.4,212.4,0,0,0,21.13-31.23,19.56,19.56,0,0,1,7.67-1.31q3.55.19,4.3,7.29a201.37,201.37,0,0,1-22.63,33.66,256.31,256.31,0,0,1-30.85,31.79q-26.93,22.44-53.11,29.92t-44.88-4.49a64.82,64.82,0,0,1-21.88-25.25,65.49,65.49,0,0,1-6.92-32.35,105.47,105.47,0,0,1,5.8-31.6,152,152,0,0,1,35.34-57.22,109,109,0,0,1,25.81-19.63,125.4,125.4,0,0,1,32-11.6q18.13-4.11,33.85,0a29.62,29.62,0,0,1,13.09,6.54,28.45,28.45,0,0,1,7.67,10.85,31.4,31.4,0,0,1,2.06,13.28,48.41,48.41,0,0,1-3,14.21A67.07,67.07,0,0,1,1894,218.8a111.32,111.32,0,0,1-30.11,18A110.87,110.87,0,0,1,1828,245.35Zm32.17-71.81a170.32,170.32,0,0,0-25.24,27.3A184.5,184.5,0,0,0,1815.64,233q5.61-1.49,12.72-4.11A154,154,0,0,0,1850,219a91.81,91.81,0,0,0,19.07-14A94.79,94.79,0,0,0,1883,189.25a29.81,29.81,0,0,0,5.61-19.82q0-6-3.74-6.73a15.6,15.6,0,0,0-8.6,1.12,48,48,0,0,0-9.35,4.86Q1862.39,171.68,1860.14,173.54Z" transform="translate(-126.12 -62.46)"/><path class="cls-2" d="M2056.49,187a216,216,0,0,0-22.81,14.77q-10.85,8-20.94,16.64-8.61,7.11-18.14,15.9T1975,252.08q-10.1,9-20.2,17.2a167.21,167.21,0,0,1-19.45,13.84q11.59-1.87,24.87-4.49t26.56-3.93a143.83,143.83,0,0,1,25.24-.37,52.09,52.09,0,0,1,20.94,5.8q13.83,7.48,17,18.51a50.73,50.73,0,0,1,.94,23.38,238.6,238.6,0,0,0-27.49-2.62q-16.27-.74-35-.56t-38.33,1.31q-19.63,1.12-37.59,3l-9.91,1.5a44.63,44.63,0,0,1-9.91.37q-6-.38-9-3.55t-4.86-11.41q-1.87-8.22-.19-12.16t4.67-5a134.68,134.68,0,0,0,23-12.9q11-7.66,21.5-15.89,9-7.1,18.89-15.52t20.2-17.39q10.28-9,20-17.77t18.32-16.27q5.23-4.49,9.35-7.85t9.72-7.11a119.9,119.9,0,0,0-14.4.93q-7.67.94-15.15,1.5a111.74,111.74,0,0,1-14.4.19,27,27,0,0,1-12.16-3.37q-11.6-6.35-13.09-15.33t2.24-20.94q2.61,1.12,10.66,1.31t18.89.19q10.84,0,23.19-.37t23.75-.56q11.41-.18,20.38-.56t13.09-.37a11.88,11.88,0,0,1,10.47,6.73q3.37,6.36,1.87,25.06-6,2.62-11.78,5T2056.49,187Z" transform="translate(-126.12 -62.46)"/></g><g class="cls-1"><path class="cls-3" d="M1339.92,82.29q7.1,9.73,7.1,20a47.26,47.26,0,0,1-4.49,20,73.76,73.76,0,0,1-12,18.14,93.34,93.34,0,0,1-15.33,14A152.67,152.67,0,0,1,1281,172.79a155.05,155.05,0,0,1-37.59,9.35,111.26,111.26,0,0,1-29.55-.93A93.87,93.87,0,0,1,1186.2,172q-1.88,2.62-3.55,5.24t-3.55,5.61q-3.74,6.36-8.6,15.52a199.89,199.89,0,0,0-8.79,18.89,114.31,114.31,0,0,0-6,19.63,38.53,38.53,0,0,0,.19,18.14,20.31,20.31,0,0,0,11.41,13.84,28.51,28.51,0,0,0,18.14,2.24,38.32,38.32,0,0,0,18.32-9,79.32,79.32,0,0,0,13.84-15.33A127.86,127.86,0,0,1,1233,223.66a80.84,80.84,0,0,1,20.94-18.7,44.53,44.53,0,0,1,8.79-4.3,49.84,49.84,0,0,1,12-2.8,51.37,51.37,0,0,1,13.09.19,29.18,29.18,0,0,1,12.16,4.68,150.35,150.35,0,0,0-20.2,30.48q-8.61,17-17.58,33.85-13.09,22.82-25.81,45.44a396.34,396.34,0,0,1-28.42,43.57q-6.73,9-14.59,18a138.15,138.15,0,0,1-16.83,16.27A117.21,117.21,0,0,1,1157.21,403a64.33,64.33,0,0,1-21.88,6.92,82.48,82.48,0,0,1-20.76.37,85.18,85.18,0,0,1-20.38-4.67,69.54,69.54,0,0,1-18-9.73A63.9,63.9,0,0,1,1062,381.11a55.68,55.68,0,0,1-9-21.32,66,66,0,0,1,7.29-45.07,54.46,54.46,0,0,1,15.52-17.39,51.19,51.19,0,0,1,19.64-8.79,34.9,34.9,0,0,1,21.13,1.68q3.36,1.5,3.74,2.8a2.75,2.75,0,0,1-.75,2.62,14.17,14.17,0,0,1-3.18,2.62,20.9,20.9,0,0,0-3.55,2.8,61.63,61.63,0,0,0-14.77,23.38,74.94,74.94,0,0,0-4.49,26.18,55.49,55.49,0,0,0,5,23.19q4.86,10.28,13.46,13.65,10.47,4.49,20,1.87a49.11,49.11,0,0,0,17.58-9,73.85,73.85,0,0,0,14.4-15.33,133.45,133.45,0,0,0,10.47-17.2,292.68,292.68,0,0,0,13.09-30.3q5.61-15.33,12-31-4.12,3-8.6,6a47.46,47.46,0,0,1-9.35,4.86A50.42,50.42,0,0,1,1160,302a53.17,53.17,0,0,1-20.38-4.3,50.26,50.26,0,0,1-17-12.16,62.35,62.35,0,0,1-12-18.89,76.6,76.6,0,0,1-5.61-33.85,104.56,104.56,0,0,1,7.85-33.29,152.23,152.23,0,0,1,17.58-31.23,252.34,252.34,0,0,1,23.19-27.68,68,68,0,0,1-8.79-28.24A52.2,52.2,0,0,1,1151,83q1.49-2.61,3.93-6.17a55.49,55.49,0,0,1,5.42-6.73,33.66,33.66,0,0,1,6.17-5.24,11.93,11.93,0,0,1,6.55-2.06q2.61,12,5.61,24.12a74.36,74.36,0,0,0,9.72,22.63,279.63,279.63,0,0,1,33.66-21.51,184.78,184.78,0,0,1,37-15.15q9.34-2.61,20.57-5a98.12,98.12,0,0,1,22.44-2.24,65.6,65.6,0,0,1,21.13,3.74A34.8,34.8,0,0,1,1339.92,82.29Zm-70.69,53.48q6.73-1.12,15.71-3.55a84.86,84.86,0,0,0,17.2-6.73,56,56,0,0,0,14.4-10.66,26.4,26.4,0,0,0,7.29-15.71q.74-9-3.93-12.9a22.45,22.45,0,0,0-11.78-4.86,45.14,45.14,0,0,0-15.15.75A82.84,82.84,0,0,0,1279.33,86a97,97,0,0,0-20.2,10.47q-9.35,6.36-18,13.46-6.36,5.24-12.53,11t-11.78,11.78a79.1,79.1,0,0,0,26.18,4.68A159.49,159.49,0,0,0,1269.23,135.77Z" transform="translate(-126.12 -62.46)"/><path class="cls-3" d="M1415.09,156q4.85-1.87,12-.75a28.55,28.55,0,0,1,17.58,11.22,54.42,54.42,0,0,1,9.35,19.07,81.46,81.46,0,0,1,.37,33.85,148.54,148.54,0,0,1-10.47,33.1q12,4.87,23.38-2.62t20-23.56q10.84-4.86,12,6-12,22.82-29.73,35.34T1425.94,282q-6,7.85-12.9,15.52a108.16,108.16,0,0,1-14.77,13.65,79.87,79.87,0,0,1-17,9.91,59.9,59.9,0,0,1-19.26,4.67,49,49,0,0,1-22.44-3.55A51,51,0,0,1,1322,309.86a63.74,63.74,0,0,1-12-18.51,73.63,73.63,0,0,1-5.61-22.07,104.19,104.19,0,0,1,1.12-26.37A129.68,129.68,0,0,1,1325.33,193a120.45,120.45,0,0,1,16.83-20.19,97.15,97.15,0,0,1,20.76-14.59,63.52,63.52,0,0,1,24.12-7.1,56.19,56.19,0,0,1,13.65.19,41.27,41.27,0,0,1,13.28,3.93Zm-18,83a56.19,56.19,0,0,1,13.65-9q7.29-3.37,13.28-.37a14.2,14.2,0,0,1,4.49,4.11,89.78,89.78,0,0,0,3.55-20.94,75.47,75.47,0,0,0-2.06-21.69,26.1,26.1,0,0,0-5.42-10.28,54.86,54.86,0,0,0-8.79-7.67,42.71,42.71,0,0,0-12.72,1.12,50.91,50.91,0,0,0-11.59,4.49,60,60,0,0,0-17.58,14.4,112,112,0,0,0-14.4,21.32,144.86,144.86,0,0,0-10.1,24.5,98.28,98.28,0,0,0-4.49,24.12,54.09,54.09,0,0,0,2.43,20.2,20.52,20.52,0,0,0,10.85,12.53q9.34,4.87,21.69.56T1403.49,279a36.46,36.46,0,0,1-9.54-5,20.49,20.49,0,0,1-6.55-8q-3-6.35.19-13.65A40.23,40.23,0,0,1,1397.14,239Z" transform="translate(-126.12 -62.46)"/><path class="cls-3" d="M1773.38,226.28a17.2,17.2,0,0,1,7.85-.37q3.37.75,4.11,6.36a286.74,286.74,0,0,1-23.56,37.4,208.36,208.36,0,0,1-29.17,31.79,102.48,102.48,0,0,1-16.27,11.78,66.61,66.61,0,0,1-18.7,7.67,38.73,38.73,0,0,1-18.89-.19q-9.35-2.43-16.45-12.15a33.69,33.69,0,0,1-7.48-17.77,74.88,74.88,0,0,1,.56-20.38,113.5,113.5,0,0,1,5.24-20.38q3.55-9.91,7.29-18.51a222.71,222.71,0,0,1,14.77-29.36q8.41-14,15.9-29-10.85,8.61-23,20.2t-21.13,22.07q-11.22,13.09-21.32,26.37t-19.82,27.49q-8.61,12.34-14.59,22.07t-10.47,16.46a80.07,80.07,0,0,1-7.67,10.1q-3.18,3.37-6.17,3.36a38.1,38.1,0,0,1-8.6-2.06,54.88,54.88,0,0,1-9.16-4.11,22.66,22.66,0,0,1-7.1-6.17,11.6,11.6,0,0,1-2.06-9q.37-1.49,1.68-5t3-7.67q1.68-4.11,3.37-8T1558,273q10.1-22.44,21.51-45.63T1604.33,178q-15.34,14.22-29.73,30.11t-27.49,32.35q-8.61,10.47-16.64,20.94t-15.9,21.32q-1.5,1.88-4.86,6.73t-7.29,10.1q-3.93,5.24-7.67,10.1a45.08,45.08,0,0,1-6,6.73q-3.37,2.62-8.79,1.31a30.77,30.77,0,0,1-10.66-5,38.44,38.44,0,0,1-8.79-8.6q-3.55-4.86-2.81-9.35,1.5-9,7.1-22.63t13.09-28.8q7.48-15.15,16.27-30.48t17-28.42L1534,147a18.31,18.31,0,0,1,10.47-8.41q7.1-2.43,15.71,3.93,8.6,6.73,10.85,10.85t-1.5,10.85q-4.12,7.49-9.91,16.64L1548,199.16q-5.8,9.17-11,17.77t-8.6,14.59q5.23-6.36,13.84-16.27t18-20.2q9.34-10.28,18.32-19.64a189.1,189.1,0,0,1,15.33-14.59,66.72,66.72,0,0,1,5.8-5,91.94,91.94,0,0,1,7.67-5.42,53.36,53.36,0,0,1,8.79-4.49,22.18,22.18,0,0,1,9.91-1.5,31.23,31.23,0,0,1,10.29,2.81,47,47,0,0,1,9.91,6,40.63,40.63,0,0,1,7.29,7.29q2.8,3.74,2.43,6.36a28.49,28.49,0,0,1-3.74,9.16,95.81,95.81,0,0,0-4.86,9.16l-9,18.33A242.24,242.24,0,0,1,1689.6,156q14.59-10.1,23.94-11.6a31.11,31.11,0,0,1,18.7,3,52.79,52.79,0,0,1,15.33,10.1q5.61,5.61,4.86,8.23a29.94,29.94,0,0,1-2.62,7.48q-1.88,3.74-3.74,7.1L1730,210.56q-7.85,15.34-15.9,30.48a215.27,215.27,0,0,0-13.65,31.6q-4.12,11.6,2.43,15.52t22.25-4.68a88.09,88.09,0,0,0,26.74-23.37A235.52,235.52,0,0,0,1773.38,226.28Z" transform="translate(-126.12 -62.46)"/><path class="cls-3" d="M1828,245.35a61.81,61.81,0,0,1-8.42.19,60.91,60.91,0,0,1-8.42-.94q-6.73,21-3.93,34.41t12.72,18.7q9.91,5.24,25.62,1.87t35.16-15.71a134.31,134.31,0,0,0,28.24-26.36,212.4,212.4,0,0,0,21.13-31.23,19.56,19.56,0,0,1,7.67-1.31q3.55.19,4.3,7.29a201.37,201.37,0,0,1-22.63,33.66,256.31,256.31,0,0,1-30.85,31.79q-26.93,22.44-53.11,29.92t-44.88-4.49a64.82,64.82,0,0,1-21.88-25.25,65.49,65.49,0,0,1-6.92-32.35,105.47,105.47,0,0,1,5.8-31.6,152,152,0,0,1,35.34-57.22,109,109,0,0,1,25.81-19.63,125.4,125.4,0,0,1,32-11.6q18.13-4.11,33.85,0a29.62,29.62,0,0,1,13.09,6.54,28.45,28.45,0,0,1,7.67,10.85,31.4,31.4,0,0,1,2.06,13.28,48.41,48.41,0,0,1-3,14.21A67.07,67.07,0,0,1,1894,218.8a111.32,111.32,0,0,1-30.11,18A110.87,110.87,0,0,1,1828,245.35Zm32.17-71.81a170.32,170.32,0,0,0-25.24,27.3A184.5,184.5,0,0,0,1815.64,233q5.61-1.49,12.72-4.11A154,154,0,0,0,1850,219a91.81,91.81,0,0,0,19.07-14A94.79,94.79,0,0,0,1883,189.25a29.81,29.81,0,0,0,5.61-19.82q0-6-3.74-6.73a15.6,15.6,0,0,0-8.6,1.12,48,48,0,0,0-9.35,4.86Q1862.39,171.68,1860.14,173.54Z" transform="translate(-126.12 -62.46)"/><path class="cls-3" d="M2056.49,187a216,216,0,0,0-22.81,14.77q-10.85,8-20.94,16.64-8.61,7.11-18.14,15.9T1975,252.08q-10.1,9-20.2,17.2a167.21,167.21,0,0,1-19.45,13.84q11.59-1.87,24.87-4.49t26.56-3.93a143.83,143.83,0,0,1,25.24-.37,52.09,52.09,0,0,1,20.94,5.8q13.83,7.48,17,18.51a50.73,50.73,0,0,1,.94,23.38,238.6,238.6,0,0,0-27.49-2.62q-16.27-.74-35-.56t-38.33,1.31q-19.63,1.12-37.59,3l-9.91,1.5a44.63,44.63,0,0,1-9.91.37q-6-.38-9-3.55t-4.86-11.41q-1.87-8.22-.19-12.16t4.67-5a134.68,134.68,0,0,0,23-12.9q11-7.66,21.5-15.89,9-7.1,18.89-15.52t20.2-17.39q10.28-9,20-17.77t18.32-16.27q5.23-4.49,9.35-7.85t9.72-7.11a119.9,119.9,0,0,0-14.4.93q-7.67.94-15.15,1.5a111.74,111.74,0,0,1-14.4.19,27,27,0,0,1-12.16-3.37q-11.6-6.35-13.09-15.33t2.24-20.94q2.61,1.12,10.66,1.31t18.89.19q10.84,0,23.19-.37t23.75-.56q11.41-.18,20.38-.56t13.09-.37a11.88,11.88,0,0,1,10.47,6.73q3.37,6.36,1.87,25.06-6,2.62-11.78,5T2056.49,187Z" transform="translate(-126.12 -62.46)"/></g></g></g></svg>