<?xml version="1.0" encoding="utf-8"?>
<!-- Generator: Adobe Illustrator 21.0.2, SVG Export Plug-In . SVG Version: 6.00 Build 0)  -->
<!DOCTYPE svg PUBLIC "-//W3C//DTD SVG 1.1//EN" "http://www.w3.org/Graphics/SVG/1.1/DTD/svg11.dtd">
<svg version="1.1" id="Layer_1" xmlns="http://www.w3.org/2000/svg" xmlns:xlink="http://www.w3.org/1999/xlink" x="0px" y="0px"
	 viewBox="0 0 50 409" style="enable-background:new 0 0 50 409;" xml:space="preserve">
<style type="text/css">
	.st0{fill:#F8F9F9;}
</style>
<g>
	<path class="st0" d="M32.5,42.1c-11.8,0-18.6-7.3-18.6-20.1v-8.9H0V0h50v22C50,34.7,43.6,42.1,32.5,42.1z M32.3,28.9
		c4.7,0,7.3-3,7.3-7.9v-7.9H25V21C25,26,27.6,28.9,32.3,28.9z"/>
	<path class="st0" d="M25.1,98C10.8,98,0,86.6,0,71.4s10.8-26.5,25.1-26.5S50,56.3,50,71.4C50,86.6,39.4,98,25.1,98z M25.1,58.1
		c-8,0-14.1,6.2-14.1,13.5c0,7.4,6.2,13.2,14.1,13.2c8,0,14-5.9,14-13.2S33.1,58.1,25.1,58.1z"/>
	<path class="st0" d="M0,134l13.8-7.3v-0.3V117H0v-13h50v22.5c0,13.3-6.4,20.8-17.5,20.8c-7.6,0-13.1-3.1-16.1-8.9L0,148.7V134z
		 M25,117v9.1c0,5.1,2.6,7.9,7.4,7.9c4.7,0,7.3-3,7.3-7.9V117H25z"/>
	<path class="st0" d="M50,193.3H39.2v-15H0v-13.1h39.2v-14.8H50V193.3z"/>
	<path class="st0" d="M50.1,235.1L39.7,235v-24.3H28.6v22.4H18.2v-22.4h-18v-13.1h50v37.5H50.1z"/>
	<path class="st0" d="M25.1,290.5C10.8,290.5,0,279.2,0,264c0-15.2,10.8-26.5,25.1-26.5S50,248.8,50,264
		C50,279.2,39.4,290.5,25.1,290.5z M25.1,250.6c-8,0-14.1,6.2-14.1,13.5c0,7.4,6.2,13.2,14.1,13.2c8,0,14-5.9,14-13.2
		C39.1,256.7,33.1,250.6,25.1,250.6z"/>
	<path class="st0" d="M50.1,309.6H11.2v21.2H0.1v-34.2h50V309.6z"/>
	<path class="st0" d="M50.1,349.2h-50v-13.1h50V349.2z"/>
	<path class="st0" d="M25.1,408.6C10.8,408.6,0,397.2,0,382s10.8-26.5,25.1-26.5S50,366.8,50,382S39.4,408.6,25.1,408.6z
		 M25.1,368.6c-8,0-14.1,6.2-14.1,13.5c0,7.4,6.2,13.2,14.1,13.2c8,0,14-5.9,14-13.2S33.1,368.6,25.1,368.6z"/>
</g>
</svg>
